<svg id="Capa_1" data-name="Capa 1" xmlns="http://www.w3.org/2000/svg" viewBox="0 0 14.81 14.76"><defs><style>.cls-1{fill:#fff;}</style></defs><title>faviconlori</title><path d="M2.64,1c1,.24.72.6,1.62,2.17,1.7,3,6.48,2.53,7.72.53,1.9-3.1,4.25-4.49,3.62.76-.81,6.84.1,7.7-2.7,9.92-2.55,2-7.85,1.58-9.64-.48C1.9,12.34-1-.14,2.64,1ZM8.32,11c-.24,0-.37,0,0,0C9.19,10.94,7.42,9.78,8.32,11Z" transform="translate(-0.89 -0.94)"/><path class="cls-1" d="M4.07,10.14c.18,0,.26.11.37.18a2.43,2.43,0,0,1,.34.3c.1.11.25.14.35.28s.17.07.24.12.27.2.4.29l.35.22c.08.06.18.1.23.18s.24.13.36.19a.23.23,0,0,1,.12.09c0,.08.09.15.2.16s.12.07.18.08a4.87,4.87,0,0,0,.52.12l.15,0a.5.5,0,0,0,.32,0,.14.14,0,0,1,.11,0,.43.43,0,0,0,.35,0,.58.58,0,0,1,.19,0,1.51,1.51,0,0,0,.3,0s.09-.05.13-.08l.31-.15.06,0a1.26,1.26,0,0,1,.51-.24s.06-.09.09-.14,0-.08.05-.09l.54-.23h0a1.18,1.18,0,0,1,.53-.38c.06,0,.1-.1.17-.14l.5-.25.41-.19s0-.11.09-.12a1.35,1.35,0,0,1,.28,0s0,0,0,.06a.69.69,0,0,1-.28.57,1.72,1.72,0,0,0-.43.46s-.09.06-.14.09a1.65,1.65,0,0,0-.19.1c-.18.13-.36.26-.53.41a.44.44,0,0,1-.34.14.11.11,0,0,0-.08,0,2.29,2.29,0,0,1-.5.3,2.9,2.9,0,0,1-.29.19l-.06,0a.61.61,0,0,0-.18.05c-.1.06-.21.09-.3.14a1.29,1.29,0,0,1-.72.11c-.18,0-.37,0-.56,0S8,13,7.78,13a4,4,0,0,1-.49,0,1.63,1.63,0,0,1-.37-.13,1.91,1.91,0,0,1-.32-.16c-.15-.1-.27-.23-.42-.33l-.7-.46a2,2,0,0,1-.22-.19c-.07,0-.13-.11-.2-.12a.57.57,0,0,1-.26-.2.81.81,0,0,0-.16-.16c-.15-.09-.32-.15-.38-.34a.18.18,0,0,0-.07-.08A.49.49,0,0,1,4.07,10.14Z" transform="translate(-0.89 -0.94)"/><path class="cls-1" d="M13.51,8.12a3,3,0,0,1-.75.47c-.13,0-.23.18-.36.26s-.32.2-.48.3l-.22.17,0,0c-.28.11-.49.36-.79.44a2.53,2.53,0,0,0-.51.22c-.12.06-.23.15-.35.22a.37.37,0,0,1-.52-.07c-.09-.1-.05-.18,0-.25s.25-.09.33-.24.16-.1.25-.15a2.31,2.31,0,0,1,.35-.18c.18-.07.31-.21.5-.28a1.19,1.19,0,0,0,.48-.26s.06,0,.09-.05l.23-.15s.05,0,.08-.06a2,2,0,0,0,.61-.31c.22-.12.45-.22.68-.32.07,0,.16,0,.21.07S13.44,8.07,13.51,8.12Z" transform="translate(-0.89 -0.94)"/><path class="cls-1" d="M3,7.43a1,1,0,0,0,.5.24,1.11,1.11,0,0,1,.34.18c.11.08.25.11.3.27s.07,0,.11,0a1.83,1.83,0,0,1,.25.06,4.07,4.07,0,0,1,.55.28,2.77,2.77,0,0,1,.29.22s.06.08.1.09.25.21.38.3,0,.07.06.1l.1.14.07.06s.07.11.12.13.17.11.22.23a.28.28,0,0,0,.07.09c.07.06.16.11.1.25s-.17.06-.23,0a3,3,0,0,1-.52-.22,1.08,1.08,0,0,1-.28-.24.68.68,0,0,0-.41-.21.38.38,0,0,1-.26-.2c-.07-.1-.14-.19-.27-.19S4.53,9,4.5,9l-.38-.31S4.06,8.65,4,8.66c-.26,0-.42-.19-.62-.28a.49.49,0,0,1-.28-.33A.2.2,0,0,0,3.08,8,.46.46,0,0,1,3,7.43Z" transform="translate(-0.89 -0.94)"/><path class="cls-1" d="M8.32,11c-.12,0-.24,0-.37,0s-.21-.19-.19-.3a.16.16,0,0,1,.07-.12,1.68,1.68,0,0,1,.38-.12.3.3,0,1,1,.11.59Z" transform="translate(-0.89 -0.94)"/></svg>